<?xml version="1.0" standalone="no"?>
<svg viewBox="0 0 200 200" xmlns="http://www.w3.org/2000/svg">
  <path fill="#FF0066" d="M37.7,-58.9C49.4,-51.2,59.7,-41.6,68.8,-29.2C77.9,-16.8,85.9,-1.7,83.7,11.9C81.5,25.4,69.1,37.3,56.6,45.5C44,53.8,31.2,58.3,17.5,64.8C3.7,71.2,-11,79.5,-23.1,76.8C-35.3,74.2,-44.8,60.6,-49.8,47.3C-54.9,34,-55.5,21,-58.4,7.8C-61.3,-5.5,-66.5,-19.1,-62.2,-28.4C-58,-37.6,-44.2,-42.6,-32.3,-50.1C-20.3,-57.7,-10.2,-67.9,1.4,-70.1C13,-72.3,26,-66.6,37.7,-58.9Z" transform="translate(100 100)" />
</svg>
