<?xml version="1.0" encoding="UTF-8" standalone="no"?><!-- Generator: Gravit.io --><svg xmlns="http://www.w3.org/2000/svg" xmlns:xlink="http://www.w3.org/1999/xlink" style="isolation:isolate" viewBox="0 0 542 448" width="542pt" height="448pt"><defs><clipPath id="_clipPath_poULJwAdWKVqfHwF0x5UDVOeNpBolUI9"><rect width="542" height="448"/></clipPath></defs><g clip-path="url(#_clipPath_poULJwAdWKVqfHwF0x5UDVOeNpBolUI9)"><path d=" M 147 0.387 C 185.795 0.319 224.591 0.266 263.386 0.234 C 267.968 0.23 272.551 0.226 277.133 0.222 C 278.045 0.222 278.958 0.221 279.897 0.22 C 294.66 0.207 309.422 0.183 324.184 0.156 C 339.336 0.128 354.489 0.111 369.641 0.105 C 378.987 0.101 388.334 0.088 397.68 0.063 C 404.093 0.048 410.506 0.043 416.919 0.047 C 420.617 0.049 424.314 0.046 428.012 0.03 C 432.028 0.012 436.044 0.018 440.06 0.026 C 441.798 0.013 441.798 0.013 443.571 0 C 457.603 0.077 470.858 4.24 481.313 13.887 C 490.224 23.387 495.665 36.005 495.299 49.095 C 494.236 60.785 489.855 72.288 485.969 83.297 C 484.624 87.111 483.301 90.933 481.977 94.754 C 481.717 95.503 481.456 96.252 481.189 97.023 C 478.777 103.986 476.51 110.99 474.319 118.024 C 472.185 124.876 469.917 131.682 467.637 138.486 C 466.658 141.408 465.685 144.331 464.711 147.254 C 455.662 174.401 455.662 174.401 454.996 176.4 C 454.549 177.74 454.103 179.08 453.656 180.419 C 452.525 183.812 451.394 187.204 450.263 190.596 C 448.037 197.272 445.813 203.948 443.596 210.626 C 442.514 213.882 441.432 217.138 440.35 220.394 C 439.833 221.949 439.316 223.504 438.801 225.06 C 437.216 229.841 435.617 234.617 434 239.387 C 433.629 240.481 433.259 241.575 432.877 242.702 C 432.539 243.671 432.2 244.639 431.852 245.637 C 431.567 246.455 431.283 247.272 430.991 248.114 C 426.59 258.212 417.172 262.478 407.808 267.016 C 404.538 268.613 401.282 270.24 398.029 271.87 C 396.59 272.59 395.151 273.31 393.713 274.03 C 392.948 274.413 392.183 274.795 391.395 275.19 C 387.216 277.279 383.036 279.365 378.856 281.451 C 369.871 285.936 360.886 290.422 351.902 294.91 C 346.507 297.605 341.112 300.299 335.716 302.992 C 330.438 305.625 325.161 308.261 319.885 310.897 C 317.9 311.889 315.914 312.88 313.928 313.87 C 303.352 319.144 292.814 324.47 282.39 330.039 C 277.494 332.645 272.538 335.068 267.5 337.387 C 261.701 340.071 256.029 342.915 250.395 345.93 C 243.228 349.734 236.006 353.409 228.73 357.001 C 227.784 357.469 226.837 357.937 225.862 358.419 C 221.98 360.338 218.096 362.254 214.208 364.16 C 211.316 365.579 208.429 367.008 205.543 368.438 C 204.235 369.074 204.235 369.074 202.901 369.723 C 195.963 373.177 189.625 376.657 187 384.387 C 185.954 391.091 187.171 396.34 190.438 402.251 C 193.594 406.567 197.833 408.328 203 409.387 C 204.37 409.477 205.743 409.521 207.115 409.526 C 207.932 409.531 208.748 409.537 209.588 409.542 C 210.48 409.543 211.371 409.544 212.289 409.545 C 213.715 409.553 213.715 409.553 215.17 409.56 C 218.364 409.576 221.557 409.584 224.751 409.593 C 227.037 409.602 229.324 409.612 231.61 409.623 C 237.824 409.65 244.039 409.671 250.253 409.691 C 256.745 409.712 263.236 409.74 269.728 409.767 C 280.626 409.811 291.525 409.852 302.423 409.89 C 313.648 409.929 324.873 409.971 336.099 410.015 C 336.791 410.018 337.482 410.02 338.195 410.023 C 341.667 410.037 345.138 410.051 348.609 410.064 C 377.406 410.178 406.203 410.285 435 410.387 C 435.195 409.66 435.391 408.932 435.592 408.182 C 436.909 403.306 438.229 398.449 439.834 393.658 C 440.327 392.181 440.327 392.181 440.829 390.674 C 441.349 389.13 441.349 389.13 441.879 387.555 C 442.247 386.453 442.616 385.351 442.995 384.215 C 444.182 380.667 445.372 377.121 446.563 373.575 C 447.383 371.124 448.203 368.672 449.023 366.221 C 450.628 361.422 452.235 356.623 453.843 351.825 C 456.446 344.057 459.037 336.285 461.625 328.512 C 463.753 322.124 465.882 315.736 468.023 309.352 C 470.894 300.784 473.745 292.21 476.508 283.606 C 476.725 282.931 476.942 282.256 477.165 281.56 C 478.222 278.269 479.276 274.976 480.324 271.682 C 483.369 262.171 486.672 252.817 490 243.387 C 476.8 243.387 463.6 243.387 450 243.387 C 452.251 233.257 452.251 233.257 453.875 228.434 C 454.393 226.887 454.393 226.887 454.922 225.309 C 455.456 223.739 455.456 223.739 456 222.137 C 456.534 220.544 456.534 220.544 457.078 218.918 C 458.616 214.35 460.208 209.867 462 205.387 C 488.4 205.387 514.8 205.387 542 205.387 C 538.626 218.884 538.626 218.884 536.504 225.168 C 536.275 225.852 536.045 226.536 535.809 227.24 C 535.064 229.457 534.313 231.672 533.563 233.887 C 533.029 235.473 532.496 237.059 531.963 238.645 C 530.859 241.931 529.753 245.216 528.645 248.501 C 526.326 255.382 524.034 262.271 521.741 269.161 C 520.495 272.905 519.248 276.648 518 280.391 C 517.752 281.134 517.505 281.877 517.25 282.642 C 515.753 287.133 514.253 291.623 512.75 296.112 C 507.146 312.852 501.611 329.612 496.183 346.411 C 492.671 357.274 489.118 368.122 485.5 378.95 C 485.278 379.613 485.057 380.276 484.829 380.96 C 483.463 385.045 482.096 389.129 480.728 393.212 C 478.619 399.511 476.511 405.811 474.406 412.112 C 473.654 414.362 472.901 416.611 472.146 418.86 C 471.673 420.277 471.2 421.693 470.727 423.11 C 470.32 424.324 469.913 425.539 469.495 426.79 C 468.085 431.07 466.748 435.373 465.407 439.675 C 465.175 440.417 464.943 441.159 464.704 441.924 C 464.136 443.745 463.568 445.566 463 447.387 C 429.114 447.502 395.228 447.59 361.341 447.643 C 357.335 447.649 353.328 447.655 349.322 447.662 C 348.126 447.664 348.126 447.664 346.905 447.666 C 334.015 447.688 321.124 447.727 308.233 447.773 C 294.993 447.82 281.753 447.848 268.512 447.858 C 260.351 447.865 252.19 447.886 244.029 447.927 C 238.422 447.953 232.816 447.961 227.209 447.955 C 223.981 447.952 220.753 447.959 217.525 447.983 C 197.128 448.129 181.328 446.38 165.504 432.141 C 153.097 419.4 148.471 403.549 148.58 386.159 C 148.78 378.973 149.832 372.905 153 366.387 C 153.428 365.455 153.856 364.523 154.297 363.563 C 159.008 354.469 166.061 347.598 173.15 340.331 C 175.639 337.716 178 335 180.361 332.271 C 182.69 329.594 185.092 326.993 187.5 324.387 C 190.54 321.088 193.562 317.778 196.5 314.387 C 199.907 310.456 203.43 306.635 206.953 302.809 C 209.506 300.032 212.03 297.237 214.5 294.387 C 217.863 290.509 221.333 286.732 224.808 282.954 C 229.242 278.131 233.625 273.264 238 268.387 C 239.5 266.72 241 265.054 242.5 263.387 C 243.235 262.57 243.97 261.753 244.727 260.911 C 246.301 259.163 247.88 257.418 249.461 255.676 C 250.258 254.797 251.054 253.918 251.875 253.012 C 252.594 252.221 253.314 251.429 254.055 250.614 C 255.799 248.618 257.41 246.508 259 244.387 C 231.61 244.387 204.22 244.387 176 244.387 C 173.979 250.637 171.958 256.886 169.875 263.325 C 165.04 278.223 160.098 293.077 155 307.887 C 149.54 323.755 144.28 339.681 139.112 355.646 C 135.443 366.975 131.717 378.282 127.938 389.575 C 121.525 408.813 115.268 428.102 109 447.387 C 73.03 447.387 37.06 447.387 0 447.387 C 1.278 441.635 2.581 436.172 4.398 430.61 C 4.63 429.893 4.861 429.177 5.099 428.438 C 5.853 426.107 6.613 423.778 7.375 421.45 C 7.636 420.646 7.897 419.843 8.166 419.015 C 12.548 405.539 17.166 392.155 21.99 378.831 C 24.591 371.615 26.91 364.38 28.963 356.986 C 30.926 350.175 33.236 343.477 35.5 336.762 C 36.029 335.186 36.558 333.609 37.086 332.032 C 38.18 328.768 39.275 325.505 40.371 322.242 C 42.679 315.369 44.969 308.491 47.259 301.613 C 48.501 297.882 49.745 294.152 50.988 290.422 C 51.488 288.924 51.987 287.425 52.487 285.927 C 68.332 238.391 68.332 238.391 69.426 235.109 C 70.143 232.959 70.859 230.808 71.576 228.657 C 73.395 223.196 75.218 217.735 77.046 212.276 C 82.605 195.67 88.103 179.047 93.5 162.387 C 101.987 136.197 110.709 110.093 119.657 84.056 C 123.04 74.204 126.359 64.341 129.466 54.397 C 132.303 45.335 135.332 36.337 138.362 27.338 C 140.527 20.888 142.632 14.425 144.652 7.928 C 144.879 7.198 145.107 6.468 145.341 5.716 C 145.895 3.94 146.447 2.164 147 0.387 Z  M 249.524 38.24 C 250.722 38.24 250.722 38.24 251.945 38.24 C 253.209 38.235 253.209 38.235 254.499 38.229 C 257.344 38.218 260.19 38.214 263.036 38.21 C 265.068 38.204 267.099 38.197 269.13 38.19 C 274.666 38.173 280.201 38.162 285.736 38.154 C 289.191 38.149 292.647 38.143 296.102 38.137 C 306.904 38.118 317.706 38.103 328.508 38.095 C 340.993 38.085 353.478 38.059 365.963 38.018 C 375.602 37.988 385.241 37.974 394.88 37.97 C 400.642 37.968 406.404 37.959 412.166 37.934 C 417.587 37.911 423.007 37.906 428.428 37.917 C 430.419 37.917 432.41 37.911 434.401 37.897 C 437.117 37.879 439.831 37.886 442.547 37.899 C 443.337 37.889 444.127 37.878 444.941 37.866 C 448.675 37.91 450.793 38.254 453.966 40.293 C 456.577 42.982 456.964 43.802 457.197 47.581 C 456.991 51.569 456.185 54.533 454.848 58.286 C 454.384 59.612 453.921 60.939 453.458 62.265 C 453.216 62.945 452.975 63.625 452.726 64.326 C 451.545 67.679 450.43 71.053 449.309 74.426 C 448.841 75.825 448.373 77.224 447.905 78.622 C 443.49 91.829 439.124 105.049 434.856 118.304 C 429.771 134.096 424.495 149.815 419.071 165.493 C 414.506 178.738 410.273 192.033 406 205.387 C 334.39 205.387 262.78 205.387 189 205.387 C 190.236 199.826 191.384 194.873 193.188 189.567 C 193.509 188.613 193.509 188.613 193.837 187.64 C 194.306 186.249 194.777 184.859 195.25 183.47 C 196.594 179.516 197.921 175.557 199.25 171.598 C 199.689 170.293 199.689 170.293 200.136 168.962 C 203.762 158.15 207.294 147.307 210.832 136.466 C 217.478 116.105 224.168 95.759 230.973 75.451 C 232.633 70.493 234.278 65.531 235.918 60.567 C 236.618 58.453 237.318 56.338 238.018 54.224 C 238.46 52.889 238.9 51.553 239.34 50.217 C 239.936 48.404 240.536 46.593 241.137 44.782 C 241.474 43.759 241.811 42.737 242.159 41.683 C 243.67 37.557 245.358 38.265 249.524 38.24 Z " fill-rule="evenodd" fill="rgb(76,89,105)"/></g></svg>